<?xml version="1.0" encoding="UTF-8"?>
<svg id="Layer_2" data-name="Layer 2" xmlns="http://www.w3.org/2000/svg" xmlns:xlink="http://www.w3.org/1999/xlink" viewBox="0 0 700 700">
  <defs>
    <clipPath id="clippath">
      <rect width="700" height="700" fill="none"/>
    </clipPath>
  </defs>
  <g id="Layer_1-2" data-name="Layer 1">
    <g id="Rec-Icon">
      <g clip-path="url(#clippath)">
        <g>
          <path d="M696.27,348.34c.88,184.56-152.34,339.16-336.92,339.81-49.84.17-89.07-6.66-131.72-25.86-5.83-2.62-8.42-9.58-5.62-15.34.92-1.87,1.84-3.77,2.81-5.62,2.77-5.41,9.35-7.57,14.9-5.09,39.44,17.69,75.14,23.6,121.28,23.18,168.92-1.53,306.36-140.11,306.57-309.03.23-196.15-182.08-349.83-386.43-300.52-108.65,26.2-194.47,110.74-222.09,219.03-16.07,62.92-14.96,126.27,2.83,180.66.44,1.38.9,2.75,1.38,4.11l40.13-15.3-29.93,70.57L3.92,482.35c-1.03-4.93,2.39-3.92,5.24-5.2,10.16-4.57,20.64-8.64,30.87-12.97-12.57-35.92-20.39-77.02-20.02-117.3C21.65,163.54,170.9,13.94,354.22,11.88c187.99-2.12,341.14,149.16,342.04,336.46Z" fill="#ef7a43"/>
          <path d="M359.66,486.17h-69.81l-49.73-86.07h-31.56v86.07h-60.25l-2.87-2.87V224.15h119.54c2.8,0,21.71,5.38,25.74,6.77,72.13,24.84,79.5,124.82,11.77,158.62l57.16,96.62ZM208.57,344.64h50.68c.79,0,8.93-3.89,10.44-4.86,16.96-11.01,18.34-37.7,2.99-50.63-1.21-1.02-9.04-5.7-9.6-5.7h-54.51v61.2Z" fill="#ef7a43"/>
          <polygon points="589.17 224.15 589.17 283.44 462.94 283.44 462.94 325.51 562.39 325.51 562.39 380.98 462.94 380.98 462.94 426.88 592.99 426.88 592.99 483.3 590.13 486.17 399.82 486.17 399.82 224.15 589.17 224.15" fill="#ef7a43"/>
        </g>
      </g>
    </g>
  </g>
</svg>