<?xml version="1.0" encoding="UTF-8"?>
<svg id="Layer_2" data-name="Layer 2" xmlns="http://www.w3.org/2000/svg" viewBox="0 0 173.05 150">
  <g id="Layer_1-2" data-name="Layer 1">
    <g id="Simple">
      <polygon points="124.03 10.05 49.03 10.05 11.53 75 49.03 139.95 124.03 139.95 161.53 75 124.03 10.05"/>
      <polygon points="129.79 .07 43.26 .07 0 75 43.26 149.93 129.79 149.93 173.05 75 129.79 .07"/>
      <polygon points="21.57 37.5 21.57 112.5 86.53 150 151.48 112.5 151.48 37.5 86.53 0 21.57 37.5"/>
      <polygon points="118.25 20.05 54.8 20.05 23.07 75 54.8 129.95 118.25 129.95 149.98 75 118.25 20.05" fill="#fff"/>
      <polygon points="114 30.05 66.37 30.05 66.37 119.95 114 119.95 139.95 75 114 30.05"/>
      <polygon points="111.59 40.05 74.55 40.05 74.55 109.95 111.59 109.95 131.77 75 111.59 40.05" fill="#fff"/>
      <polygon points="109.17 47.55 80.08 47.55 80.08 102.45 109.17 102.45 125.02 75 109.17 47.55"/>
      <rect x="23.07" y="69.66" width="49.62" height="10.67"/>
      <g id="E">
        <rect x="79.98" y="62.5" width="5" height="25" fill="#fff"/>
        <rect x="84.98" y="72.5" width="10.12" height="5" fill="#fff"/>
        <rect x="84.98" y="82.5" width="10.12" height="5" fill="#fff"/>
        <rect x="84.98" y="62.5" width="10.12" height="5" fill="#fff"/>
      </g>
    </g>
  </g>
</svg>