<?xml version="1.0" encoding="UTF-8"?>
<svg id="Layer_1" xmlns="http://www.w3.org/2000/svg" version="1.1" viewBox="0 0 1002 355">
  <!-- Generator: Adobe Illustrator 29.4.0, SVG Export Plug-In . SVG Version: 2.1.0 Build 152)  -->
  <defs>
    <style>
      .st0 {
        fill: #3f3f3f;
      }

      .st1 {
        fill: #d6d6d6;
      }

      .st2 {
        fill: #414141;
      }

      .st3 {
        fill: #3c3c3c;
      }

      .st4 {
        fill: #3a3939;
      }

      .st5 {
        fill: #353635;
      }

      .st6 {
        fill: #d5d5d6;
      }

      .st7 {
        fill: #3b3b3b;
      }

      .st8 {
        fill: #ef7b44;
      }

      .st9 {
        fill: #ef7a43;
      }

      .st10 {
        fill: #ef7b45;
      }

      .st11 {
        fill: #3a3a3a;
      }

      .st12 {
        fill: #373737;
      }

      .st13 {
        fill: #3d3d3d;
      }

      .st14 {
        fill: #d5d5d5;
      }

      .st15 {
        fill: #d6d6d5;
      }

      .st16 {
        fill: #424242;
      }

      .st17 {
        fill: #474748;
      }

      .st18 {
        fill: #49494a;
      }
    </style>
  </defs>
  <g id="Rec-Logo">
    <path class="st8" d="M201.5.8l25.8,4.7c58.3,13.5,107.2,57.7,126.2,114.3-.6.4-10.1,8.1-11,9C315.1,35.8,209.3-12.1,120.2,28,43.3,62.6,4.5,151.7,32.6,231.8l21-8-15.7,36.9L1.5,246.8c-.5-2.6,1.2-2,2.7-2.7,5.4-2.4,10.9-4.6,16.3-6.9C-13.2,141.1,41.2,35.2,138.8,7.6L171.5.8h30Z"/>
    <path class="st10" d="M341.5,230.8c.3.2,2.3-.2,3.5.9,1.7,1.5,6.4,5.4,6.5,7.1-17.2,51.8-64.3,94.3-116.8,108.7-9.3,2.5-20.7,5.5-30.2,6.3-11.5,1-24.3-.7-36,0l-29.2-6.3c-3.8-1.6-22.7-6.5-23.7-9.4-.9-2.7,1.3-7.6,3.9-8.8,4.7-2.1,19,4.6,24.8,6.2,83.1,22.4,169.5-24.1,197.2-104.7h0Z"/>
    <g>
      <polygon class="st6" points="647.5 111.8 682 210.8 715.5 111.8 751.5 111.8 699.4 247.7 665 247.9 611.5 111.8 647.5 111.8"/>
      <rect class="st1" x="769.5" y="111.8" width="33" height="137"/>
      <path class="st1" d="M931,248.8c-5.5-1.2-6.8-17.2-10-21-.8-1-1.8-1.1-3-1.1h-50.9l-8.6,21.6c-1.8,1.1-33,.8-34-.6l53.1-135.9,30.4-.2,55.5,137.1c-9.3-1.4-23.9,1.8-32.5,0h0ZM877.5,197.8h32l-15.5-45-16.5,45Z"/>
      <g>
        <path class="st14" d="M610.9,180.1c0,39.4-31.9,71.3-71.3,71.3s-71.3-31.9-71.3-71.3,31.9-71.3,71.3-71.3,71.3,31.9,71.3,71.3h0ZM531.3,142.1c-38.5,6-38.3,72.6,3.9,76.6,55.6,5.4,55.9-85.9-3.9-76.6Z"/>
        <path class="st15" d="M353.5,119.8c28.1-19.1,71.4-12.3,93.5,13,1.6,1.8,7.8,9.9,8.5,11.5.7,1.9-.7,1.3-1.5,1.5-10.2,3-20.9,4.9-31.1,7.9-18.5-18-52.6-17-62.9,9.1-11.6,29.4,7.6,60.9,40.9,54.9,10.9-1.9,17.2-8.2,25.1-14.9l31.5,8.5c-16,34.7-57.4,48.3-92.3,34.2-4.8-1.9-8.9-5.1-13.7-6.8,0-1.6-4.8-5.5-6.5-7.1-1.2-1.1-3.2-.7-3.5-.9-.8-.6-10.2-15.3-11.2-17.3-13-25.6-9.1-64.5,12.2-84.7.9-.9,10.4-8.6,11-9h0Z"/>
      </g>
    </g>
    <path class="st9" d="M187.5,248.8h-36.5l-26-45h-16.5v45h-31.5l-1.5-1.5V111.8h62.5c1.5,0,11.4,2.8,13.5,3.5,37.7,13,41.6,65.3,6.1,82.9l29.9,50.5h0ZM108.5,174.8h26.5c.4,0,4.7-2,5.5-2.5,8.9-5.8,9.6-19.7,1.6-26.5-.6-.5-4.7-3-5-3h-28.5v32h0Z"/>
    <polygon class="st9" points="307.5 111.8 307.5 142.8 241.5 142.8 241.5 164.8 293.5 164.8 293.5 193.8 241.5 193.8 241.5 217.8 309.5 217.8 309.5 247.3 308 248.8 208.5 248.8 208.5 111.8 307.5 111.8"/>
    <g>
      <path class="st2" d="M703.5,271.8c3.4-3.3,11.2,10.3,12,13,1.7,1.2,8.2-16.1,13-13v24.5l-1.5,1.5-2.5-1.5v-17.5l-7.5,11-9.5-11v17.5l-2.5,1.5-1.5-1.5v-24.5Z"/>
      <path class="st7" d="M916.5,273.3c.7-2.2,12.8-1.8,15.3-1.3,8,1.8,7.1,12.7-.3,15.3,0,2.6,6.9,6.8,6,10.5-7.9-1-6.7-13-17-10l-.5,9-3.5-.5v-23h0ZM920.5,284.8c18.2,2.3,18.6-12.7,0-10v10Z"/>
      <path class="st0" d="M780,271.8c6.9,1.6,7,14.4-1.5,15.5l7,10.5c-8.5-.7-7.1-13.1-17-10l-.5,9-3.5-.5v-24.5c4.5.7,11.4-.9,15.5,0h0ZM767.5,274.8l.9,9.6c18.1,3.1,17.7-13-.9-9.6Z"/>
      <polygon class="st16" points="412.5 271.8 412.5 274.8 397.5 274.8 397.5 282.8 411.5 282.8 411.5 285.8 397.5 285.8 397.5 293.8 412.5 293.8 412.5 297.8 395 297.8 393.5 296.3 393.5 271.8 412.5 271.8"/>
      <path class="st3" d="M863.9,284.5c0,7.3-5.9,13.3-13.3,13.3s-13.3-5.9-13.3-13.3,5.9-13.3,13.3-13.3,13.3,5.9,13.3,13.3ZM847.3,275.1c-9.4,2.1-7.6,21.1,4.5,19.6s11.3-23.2-4.5-19.6Z"/>
      <path class="st7" d="M465.3,284.5c0,7.3-5.9,13.2-13.2,13.2s-13.2-5.9-13.2-13.2,5.9-13.2,13.2-13.2,13.2,5.9,13.2,13.2ZM461.9,284.6c0-5.5-4.4-9.9-9.9-9.9s-9.9,4.4-9.9,9.9,4.4,9.9,9.9,9.9,9.9-4.4,9.9-9.9Z"/>
      <path class="st18" d="M533.5,271.8v3h-15v8l13,.5c0,2,.8,2.4-1.5,2.5-3.8.2-7.7-.2-11.5,0v8h15c.4,1.2-.4,4-1.5,4h-16l-1.5-1.5v-24.5h19,0Z"/>
      <path class="st17" d="M912.5,271.8v3h-15v8l13,.5c0,2,.8,2.4-1.5,2.5-3.8.2-7.7-.2-11.5,0v8h15c.4,1.2-.4,4-1.5,4h-16l-1.5-1.5v-24.5h19,0Z"/>
      <path class="st3" d="M583,271.8c7.5,1.6,7.6,14-.5,15.5l7,10.5c-8.9-1.2-7-13.4-18-10,1.6,2.5,2.2,13.2-3,8.5v-24.5c4.2.6,10.6-.9,14.5,0h0ZM584.3,276.1l-12.8-1.2v10c4.9-.1,12.1,1.5,14-4.5l-1.3-4.2Z"/>
      <path class="st4" d="M383,271.8c7,1.5,7.6,13.7-.5,15l6,10c-5.4,1.5-6-5.8-9.4-8.1-2.3-1.5-5-.9-7.6-.9v9h-3v-25c4.3.6,10.6-.8,14.5,0h0ZM371.5,284.8c18.3,2.5,18.8-12.8,0-10v10Z"/>
      <path class="st16" d="M809.5,271.8v3h-16v8h14v3h-14v8h16c.4,1.2-.4,4-1.5,4h-16l-1.5-1.5v-24.5h19Z"/>
      <polygon class="st2" points="612.5 271.8 612.5 274.8 597.5 274.8 597.5 282.8 611.5 282.8 611.5 285.8 597.5 285.8 597.5 293.8 612 293.8 613.5 295.3 612 297.8 594.5 297.8 594.5 271.8 612.5 271.8"/>
      <path class="st11" d="M431.4,288c-5.9-2.4-14.7-2-13.9-10.6.6-7.1,12.1-7.5,16.6-3.5.4,6.5-7-1.9-12.1,2-6.9,5.2,9.2,7.5,11.5,9.6,5,4.7.7,11.7-5.5,12.4-3.4.4-14.5-2.5-9.9-7,4,3,6.7,3.8,11.9,2.9,2.1-.7,1.9-3.9,1.5-5.7h0Z"/>
      <path class="st13" d="M689.5,297.8c-4.3.8-4.8-4.1-6.2-6.8h-13.7c-1,2.6-1.4,6.9-5.1,6.8-1.8-2,9.5-21.9,10.1-25.9l4.4.9,10.5,25h0ZM681.5,287.8l-4.5-12-5.5,12h10Z"/>
      <path class="st13" d="M621.9,291.5c3.7,4.1,11.3,2.8,15.2-.7l1,3c-11.5,11.2-28.2-3.1-20.4-16.4,2.3-3.9,7.7-6.9,12.2-6.6,2.8.2,11.6,3.5,7.1,7-10.1-9.5-23.8,4.2-15.2,13.7h0Z"/>
      <path class="st11" d="M834.5,291.8c0,3.3-4,5.3-6.7,5.8-19.3,3.3-20.8-26.3-2.7-26.7,3,0,12.4,3.2,7.9,6.9-18.6-13.2-25,19.2-5,15.9,2.3-.4,4-2.3,6.5-1.9h0Z"/>
      <path class="st7" d="M869.4,272c1.8,6,4.3,11.9,6.9,17.7.5,1.2-.5,2.6,1.8,2.2l7.7-19.9h3.8c-1.2,3.3-9.8,25.4-11.5,25.8-1.3.3-2.3-1.1-2.9-2.1-1.3-1.9-9-20.1-9.5-22.5s2.3-1.3,3.8-1.2Z"/>
      <path class="st13" d="M490.4,272c2,5.9,4.3,12,6.9,17.7.5,1.2-.5,2.6,1.8,2.2l7.6-19.9h3.9c-1.2,3.3-9.8,25.4-11.5,25.8-1.6.4-2-1.3-2.7-2.3-1.9-2.9-9-19-9.7-22.3-.5-2.4,2.3-1.3,3.8-1.2h0Z"/>
      <path class="st0" d="M646.5,271.8v22h14c.4,1.2-.4,4-1.5,4h-15c-2.5-1.6-.5-3.9-.5-6.5.1-6.5-.2-13,0-19.5h3,0Z"/>
      <polygon class="st0" points="473.5 271.8 473.5 293.8 487.5 293.8 487.5 297.8 472 297.8 470.5 296.3 470.5 271.8 473.5 271.8"/>
      <polygon class="st18" points="697.5 271.8 697.5 296.3 696 297.8 693.5 296.3 693.5 271.8 697.5 271.8"/>
    </g>
    <g>
      <path class="st5" d="M1000.5,120.8v12c-3.1,4.3-3.7,7.9-8.1,11.4-14.2,11.4-35.9,2.7-37-15.9-1.6-28.6,36.4-33.8,45-7.6h0ZM997.2,126.5c0-10.6-8.6-19.2-19.2-19.2s-19.2,8.6-19.2,19.2,8.6,19.2,19.2,19.2,19.2-8.6,19.2-19.2Z"/>
      <path class="st12" d="M969.5,112.8c11.9-2.2,25.6,4.7,13.1,15.5l6,11c-8.1,3.9-5.9-11.1-14-9.5v10h-5v-27h0ZM974.5,125.8c10.2.2,11.3-10,0-9v9Z"/>
    </g>
  </g>
</svg>